<?xml version="1.0" standalone="no"?>
<!DOCTYPE svg PUBLIC "-//W3C//DTD SVG 20010904//EN"
 "http://www.w3.org/TR/2001/REC-SVG-20010904/DTD/svg10.dtd">
<svg version="1.0" xmlns="http://www.w3.org/2000/svg"
 width="4165.000000pt" height="1201.000000pt" viewBox="0 0 4165.000000 1201.000000"
 preserveAspectRatio="xMidYMid meet">
<metadata>
Created by potrace 1.16, written by Peter Selinger 2001-2019
</metadata>
<g transform="translate(0.000000,1201.000000) scale(0.100000,-0.100000)"
fill="#000000" stroke="none">
<path d="M0 10361 c0 -20 6 -31 17 -35 10 -3 301 -68 648 -145 922 -205 1168
-261 1172 -265 2 -2 6 -32 9 -67 2 -35 6 -77 7 -92 2 -31 27 -16 -378 -231
-60 -32 -202 -108 -315 -169 -113 -60 -241 -129 -285 -152 -44 -23 -188 -100
-320 -170 -132 -71 -310 -166 -395 -211 -153 -81 -155 -83 -158 -118 -2 -20 0
-36 3 -36 3 0 169 87 368 194 199 106 504 269 677 361 173 93 432 231 574 307
142 76 261 138 264 138 2 0 30 -24 62 -54 56 -51 125 -86 174 -86 12 0 26 -4
33 -8 12 -7 20 -338 38 -1472 3 -190 7 -419 10 -510 3 -91 7 -349 10 -575 5
-401 8 -535 21 -1092 l6 -273 -23 0 c-34 0 -119 -42 -161 -79 -20 -17 -39 -31
-44 -31 -4 0 -47 24 -94 54 -100 63 -415 257 -480 296 -25 15 -81 50 -125 77
-44 27 -345 213 -670 413 -324 199 -602 371 -618 382 l-27 19 0 -39 c0 -37 4
-42 48 -70 26 -16 231 -143 457 -282 226 -139 437 -269 470 -290 33 -20 161
-100 285 -176 124 -76 259 -159 300 -184 41 -26 147 -90 235 -144 88 -54 166
-104 173 -111 10 -9 9 -24 -6 -81 l-19 -69 -969 -97 c-533 -53 -970 -97 -971
-98 -2 0 -3 -13 -3 -30 0 -22 5 -30 18 -30 15 0 325 30 462 45 290 31 1366
135 1378 133 9 -2 -242 -76 -558 -166 -316 -89 -737 -209 -935 -265 l-360
-102 -3 -34 c-3 -32 -2 -33 25 -26 15 3 240 67 500 141 260 74 687 195 948
269 262 74 480 135 485 135 4 0 20 -21 34 -46 l26 -46 -23 -27 c-12 -14 -467
-496 -1010 -1069 l-988 -1042 3 -45 3 -45 267 283 c146 155 282 298 300 317
19 19 363 382 764 806 l730 770 63 -34 c45 -25 79 -36 124 -39 l62 -5 62 -312
c98 -488 328 -1634 618 -3071 146 -726 276 -1372 288 -1435 l22 -115 33 -3
c17 -2 32 1 32 6 0 5 -76 389 -170 853 -303 1511 -697 3467 -761 3782 -34 169
-60 310 -57 313 3 2 18 6 33 7 29 2 68 -57 709 -1068 73 -115 427 -671 786
-1235 359 -564 674 -1059 700 -1100 26 -41 186 -293 356 -560 170 -267 383
-601 474 -743 l164 -257 38 0 39 0 -37 57 c-20 32 -253 398 -517 813 -264 415
-495 778 -513 805 -18 28 -503 789 -1077 1692 -1033 1624 -1045 1642 -1025
1660 29 26 73 93 85 128 8 24 15 29 34 27 24 -3 882 -169 1379 -267 151 -30
439 -86 640 -125 201 -39 523 -102 715 -140 193 -37 481 -94 640 -125 160 -31
391 -76 515 -100 124 -24 297 -58 385 -75 210 -41 598 -117 970 -190 165 -32
431 -84 590 -115 160 -31 414 -81 565 -110 258 -51 1077 -211 1950 -381 625
-121 694 -135 711 -140 12 -3 18 -21 21 -67 3 -34 16 -84 28 -110 20 -41 21
-50 9 -62 -8 -7 -165 -140 -349 -295 -184 -155 -357 -300 -385 -324 -27 -23
-446 -377 -930 -785 -484 -409 -945 -798 -1025 -866 -80 -67 -353 -299 -608
-514 l-464 -391 51 0 50 0 511 433 c282 237 529 446 550 462 20 17 309 260
640 540 689 583 1050 888 1580 1335 206 173 388 327 404 341 l30 27 39 -26
c24 -16 37 -31 34 -41 -3 -9 -91 -223 -197 -476 -106 -253 -246 -590 -313
-750 -286 -691 -737 -1773 -752 -1808 l-16 -38 37 3 c34 3 39 7 60 58 32 76
349 836 389 935 18 44 73 177 123 295 285 683 349 838 441 1060 251 606 296
710 303 710 14 0 10 -38 -52 -498 -34 -246 -83 -613 -110 -817 -27 -203 -90
-675 -140 -1047 -49 -372 -90 -682 -90 -687 0 -6 13 -11 30 -11 23 0 31 5 35
23 2 12 41 294 85 627 44 333 89 670 100 750 11 80 47 348 80 595 112 849 130
980 135 1016 6 33 9 35 44 37 122 8 224 81 279 201 21 45 26 71 25 133 0 67
-5 88 -32 143 -57 116 -169 186 -297 187 -119 1 -230 -60 -283 -154 -17 -29
-34 -59 -39 -67 -7 -12 -32 -10 -168 17 -87 17 -323 63 -524 102 -201 39 -594
116 -875 171 -280 55 -566 111 -635 124 -69 13 -251 49 -405 79 -324 63 -884
173 -1435 280 -212 41 -605 118 -875 171 -269 53 -557 109 -640 125 -195 38
-507 98 -820 160 -371 73 -1074 210 -1460 285 -187 37 -416 81 -510 100 -93
18 -301 59 -461 90 l-291 57 -6 56 c-15 144 -122 262 -267 293 l-50 11 0 161
c0 89 -4 380 -10 647 -5 267 -12 627 -15 800 -14 789 -25 1390 -30 1680 -3
173 -8 386 -10 473 -3 145 -2 157 14 157 32 0 139 60 170 96 86 98 114 233 71
349 -30 80 -113 164 -194 194 -149 56 -326 -4 -402 -136 -15 -27 -28 -49 -29
-50 -1 -2 -111 22 -246 51 -442 99 -1463 327 -1524 342 -88 20 -95 19 -95 -15z"/>
<path d="M24991 6338 c-102 -18 -194 -90 -239 -186 -23 -48 -27 -71 -27 -142
0 -103 21 -155 92 -231 l47 -51 -35 -66 c-67 -126 -632 -1177 -659 -1227 -26
-48 -129 -239 -357 -665 -58 -107 -120 -222 -137 -255 -18 -33 -67 -123 -108
-200 -42 -77 -136 -252 -210 -390 -75 -137 -236 -437 -358 -665 -307 -572
-286 -536 -307 -532 -10 2 -54 6 -98 9 -66 4 -90 1 -140 -18 -119 -45 -203
-166 -208 -302 l-2 -61 -510 -133 c-787 -206 -1607 -419 -1855 -483 -124 -32
-443 -115 -710 -185 -267 -70 -586 -153 -710 -185 -124 -32 -358 -93 -520
-135 -162 -43 -430 -113 -595 -156 l-300 -78 126 0 c125 -1 127 -1 410 73 156
41 415 108 574 150 160 41 396 103 525 136 327 86 517 135 875 228 171 44 465
121 655 171 190 49 563 147 830 216 267 69 648 169 846 221 199 52 365 94 370
94 5 0 20 -20 33 -45 30 -56 89 -111 148 -137 37 -16 44 -23 39 -41 -2 -12
-17 -80 -31 -152 -14 -71 -62 -305 -106 -518 -43 -213 -79 -390 -79 -393 0 -3
15 -4 32 -2 l33 3 52 255 c89 433 123 601 145 706 l21 101 74 11 c40 7 86 18
101 26 l27 14 182 -258 181 -259 -104 -293 c-57 -161 -104 -296 -104 -300 0
-5 15 -8 33 -8 l32 0 89 258 c49 141 92 260 96 265 3 4 31 -28 62 -70 61 -86
198 -281 272 -385 45 -65 49 -68 88 -68 31 0 38 3 31 13 -16 20 -294 414 -361
512 l-62 90 176 495 c96 272 233 659 304 860 71 201 217 615 325 920 267 754
698 1973 840 2375 163 462 142 415 181 415 38 0 39 -3 49 -150 52 -798 145
-2194 150 -2250 8 -110 14 -208 45 -675 17 -247 32 -484 35 -525 4 -41 10
-133 14 -205 5 -71 35 -523 67 -1003 l58 -872 34 0 33 0 -6 68 c-3 37 -15 202
-25 367 -75 1141 -128 1936 -150 2235 -5 74 -12 180 -15 235 -3 55 -8 123 -11
150 -2 28 -15 226 -29 440 -14 215 -27 417 -30 450 -6 63 -115 1705 -115 1723
0 6 10 13 23 17 12 3 43 16 69 27 27 12 49 20 51 17 6 -7 347 -407 588 -689
129 -151 381 -446 559 -655 178 -209 401 -470 495 -580 94 -110 306 -357 470
-550 164 -192 362 -424 440 -515 147 -172 675 -790 969 -1135 94 -110 294
-343 443 -518 l272 -317 -147 -143 c-81 -79 -258 -250 -394 -381 -137 -131
-248 -240 -248 -242 0 -2 19 -4 43 -4 42 0 45 3 411 355 204 195 373 355 377
355 5 0 144 -160 311 -355 l303 -355 43 0 44 0 -50 57 c-27 32 -174 204 -326
382 l-277 325 53 51 c109 107 2175 2091 2195 2108 21 18 22 18 60 -6 39 -26
82 -41 144 -51 l35 -6 13 -133 c6 -72 29 -312 51 -532 22 -220 60 -609 85
-865 25 -256 61 -627 80 -825 20 -198 38 -393 42 -433 l6 -72 34 0 34 0 -6 43
c-3 23 -39 391 -80 817 -41 426 -80 818 -85 870 -5 52 -21 214 -35 360 -14
146 -34 353 -45 460 -10 107 -20 224 -22 259 l-3 63 50 16 c37 12 67 33 114
80 l64 64 76 -35 c42 -20 186 -85 321 -145 135 -61 445 -200 690 -310 245
-110 749 -336 1120 -502 1825 -817 1631 -727 1623 -759 -23 -83 2 -203 57
-281 l20 -29 -457 -483 -458 -483 41 -3 c47 -3 10 -40 573 555 l352 373 40
-23 c21 -12 39 -25 39 -28 0 -3 -61 -199 -135 -435 -74 -236 -135 -433 -135
-437 0 -5 14 -7 32 -5 37 3 20 -40 201 538 l102 325 75 6 c47 4 91 14 117 27
l42 22 61 -88 c97 -138 459 -661 520 -750 52 -78 57 -82 93 -82 20 0 37 2 37
5 0 5 -60 94 -128 190 -15 22 -141 203 -279 402 -216 311 -249 364 -239 379
11 15 34 1 213 -132 111 -82 319 -237 464 -344 145 -107 355 -264 468 -347
l205 -153 55 0 55 0 -180 134 c-98 73 -297 220 -440 327 -835 619 -786 581
-779 603 4 12 12 44 18 72 l11 52 115 6 c120 7 230 12 436 21 66 3 170 7 230
10 61 3 220 10 355 15 135 5 283 12 330 15 97 5 191 9 695 30 198 8 504 22
680 30 176 8 428 19 560 25 224 9 328 14 565 25 52 2 160 7 240 10 80 3 226
10 325 16 99 5 199 9 223 9 41 0 42 0 42 35 0 31 -3 35 -22 31 -13 -3 -104 -8
-203 -11 -99 -3 -216 -8 -260 -11 -44 -2 -393 -18 -775 -34 -382 -16 -744 -32
-805 -35 -60 -2 -166 -7 -235 -10 -69 -3 -217 -10 -330 -15 -113 -5 -263 -12
-335 -15 -71 -3 -229 -10 -350 -15 -232 -10 -595 -26 -830 -35 -77 -3 -160 -8
-185 -10 -25 -2 -140 -7 -256 -11 l-211 -7 -17 49 c-9 27 -32 70 -50 95 -124
169 -372 180 -516 22 l-49 -53 -303 136 c-167 75 -346 156 -398 179 -52 23
-358 161 -680 305 -322 145 -628 282 -680 305 -52 23 -228 102 -390 175 -576
258 -709 318 -1046 469 l-341 153 9 42 c40 172 -82 355 -262 392 -118 24 -233
-16 -319 -112 l-51 -57 -252 101 c-139 56 -768 308 -1398 560 -630 253 -1928
774 -2885 1157 -957 384 -1763 707 -1790 718 l-51 20 0 91 c1 106 -18 157 -80
226 -84 93 -192 130 -313 108z m686 -612 c169 -68 1033 -414 1918 -769 886
-355 2004 -803 2485 -996 481 -194 1051 -422 1265 -508 l390 -156 0 -92 c0
-83 3 -97 32 -153 l32 -62 -902 -868 c-496 -477 -1002 -964 -1125 -1082 -123
-118 -227 -216 -232 -218 -9 -3 -94 96 -1439 1672 -108 126 -317 372 -466 545
-148 174 -374 438 -500 586 -878 1028 -1353 1583 -1371 1605 -97 111 -454 532
-459 540 -7 11 42 80 56 80 4 0 147 -56 316 -124z m-933 -496 c-151 -427 -680
-1924 -1207 -3415 -212 -600 -390 -1101 -395 -1114 -8 -23 -14 -16 -88 90 -44
63 -119 169 -167 237 l-86 122 39 53 c55 72 73 131 68 225 -4 93 -32 156 -95
220 l-43 43 21 42 c18 35 167 312 549 1022 21 39 117 219 215 400 250 466 252
469 315 585 31 58 79 146 105 195 26 50 91 171 145 270 81 150 263 488 589
1095 28 52 74 139 103 193 28 53 53 96 54 94 2 -2 -53 -162 -122 -357z"/>
<path d="M0 1056 c0 -44 1 -46 347 -428 190 -210 396 -438 456 -506 110 -121
111 -122 155 -122 l45 0 -39 43 c-22 23 -245 270 -498 550 -252 279 -460 507
-462 507 -2 0 -4 -20 -4 -44z"/>
</g>
</svg>
