<?xml version="1.0" standalone="no"?>
<!DOCTYPE svg PUBLIC "-//W3C//DTD SVG 20010904//EN"
 "http://www.w3.org/TR/2001/REC-SVG-20010904/DTD/svg10.dtd">
<svg version="1.0" xmlns="http://www.w3.org/2000/svg"
 width="328.000000pt" height="328.000000pt" viewBox="0 0 328.000000 328.000000"
 preserveAspectRatio="xMidYMid meet">

<g transform="translate(0.000000,328.000000) scale(0.100000,-0.100000)"
fill="#000000" stroke="none">
<path d="M1577 2552 c-34 -38 -8 -91 43 -89 18 0 93 -51 260 -177 247 -187
336 -254 358 -271 11 -9 -7 -74 -102 -359 -64 -191 -114 -352 -111 -357 4 -5
41 -9 84 -9 l77 0 28 88 c15 48 45 141 66 207 125 391 151 477 148 485 -2 5
-78 67 -169 137 -339 262 -357 277 -363 305 -7 36 -37 52 -71 36 -54 -24 -35
-98 25 -98 27 0 83 -40 385 -274 71 -56 135 -105 142 -111 10 -8 -12 -86 -105
-370 l-118 -360 -37 -3 c-20 -2 -37 1 -37 7 0 6 18 65 39 133 22 68 69 216
105 329 36 113 66 209 66 212 0 3 -45 41 -101 84 -254 197 -496 385 -511 398
-10 8 -18 23 -18 33 0 41 -54 57 -83 24z"/>
<path d="M1181 2229 c-191 -144 -272 -199 -291 -199 -57 0 -79 -74 -30 -100
30 -16 57 -3 70 33 12 33 33 51 359 297 159 119 165 122 188 108 14 -8 150
-108 304 -223 217 -161 279 -211 273 -224 -3 -9 -9 -24 -11 -34 -3 -10 -11
-16 -17 -14 -7 3 -110 76 -230 163 -120 88 -244 178 -275 200 l-58 42 -318
-240 c-202 -152 -323 -237 -333 -233 -8 3 -25 -2 -38 -10 -43 -28 -22 -95 30
-95 26 0 46 18 46 42 0 11 84 83 228 195 287 224 378 293 386 293 4 0 136 -97
293 -215 196 -148 290 -212 297 -205 10 8 51 122 51 142 0 10 -637 478 -650
477 -5 0 -129 -90 -274 -200z"/>
<path d="M1171 1870 c-173 -132 -319 -244 -324 -249 -7 -7 -4 -29 6 -63 9 -29
41 -136 72 -238 31 -102 69 -229 86 -284 22 -70 27 -102 20 -109 -17 -17 -13
-45 9 -67 25 -25 45 -25 70 0 27 27 25 46 -7 78 -25 25 -72 161 -179 522 -14
47 -30 97 -34 112 -8 27 -1 34 287 249 162 122 302 223 312 226 9 2 26 -6 38
-19 l22 -24 -279 -213 c-190 -145 -280 -219 -280 -232 0 -10 6 -36 14 -56 13
-36 32 -98 91 -298 15 -49 35 -117 45 -150 79 -260 79 -259 65 -302 -5 -16 0
-28 19 -47 30 -31 40 -32 66 -6 27 27 26 66 -4 85 -17 12 -31 40 -51 103 -14
48 -43 141 -64 207 -107 335 -131 412 -136 440 -5 28 1 34 92 101 310 225 483
358 483 369 0 12 -107 105 -120 105 -3 0 -146 -108 -319 -240z"/>
<path d="M2495 2010 c-13 -14 -16 -28 -11 -55 5 -26 0 -58 -18 -113 -13 -42
-36 -117 -51 -167 -46 -152 -62 -205 -105 -341 l-41 -131 -67 -7 c-37 -3 -194
-6 -350 -6 -217 0 -284 -3 -287 -12 -3 -7 3 -42 13 -78 l17 -65 160 0 c286 1
593 6 614 12 16 4 27 28 51 107 17 55 51 162 75 236 25 74 56 172 70 217 19
57 34 86 51 98 30 20 33 69 5 85 -50 26 -90 -6 -75 -58 4 -15 6 -31 4 -37 -65
-217 -168 -540 -183 -577 l-15 -36 -189 -1 c-103 -1 -265 -4 -359 -7 l-171 -7
-12 33 c-6 19 -8 37 -4 41 5 4 158 11 342 16 l334 8 18 55 c16 52 156 486 202
630 12 37 31 73 44 83 28 22 30 58 5 80 -24 22 -45 21 -67 -3z"/>
<path d="M1223 1582 c-29 -20 -52 -42 -53 -49 0 -7 11 -45 24 -85 47 -141 226
-662 229 -664 2 -2 148 -7 325 -12 290 -8 325 -11 343 -27 30 -28 73 -10 77
32 2 25 -2 35 -22 48 -23 15 -26 15 -49 0 -22 -14 -61 -16 -299 -15 -150 1
-291 5 -313 8 l-40 7 -116 348 -116 348 29 21 c16 11 31 19 32 17 4 -4 69
-193 168 -484 27 -82 55 -155 62 -162 8 -8 118 -14 381 -19 348 -7 371 -8 397
-27 26 -19 28 -19 52 -3 31 20 34 56 8 79 -23 21 -46 22 -62 2 -11 -13 -59
-15 -325 -15 -172 0 -339 3 -373 6 l-60 7 -42 131 c-169 521 -178 546 -193
546 -7 -1 -35 -18 -64 -38z"/>
</g>
</svg>
