<?xml version="1.0" standalone="no"?>
<!DOCTYPE svg PUBLIC "-//W3C//DTD SVG 20010904//EN"
 "http://www.w3.org/TR/2001/REC-SVG-20010904/DTD/svg10.dtd">
<svg version="1.0" xmlns="http://www.w3.org/2000/svg"
 width="4165.000000pt" height="1207.000000pt" viewBox="0 0 4165.000000 1207.000000"
 preserveAspectRatio="xMidYMid meet">
<metadata>
Created by potrace 1.16, written by Peter Selinger 2001-2019
</metadata>
<g transform="translate(0.000000,1207.000000) scale(0.100000,-0.100000)"
fill="#000000" stroke="none">
<path d="M1035 12048 c11 -12 146 -162 300 -333 155 -170 600 -663 989 -1095
390 -432 732 -810 760 -840 28 -31 69 -76 91 -100 22 -25 164 -182 315 -349
151 -167 276 -307 278 -312 2 -5 -5 -20 -15 -33 l-19 -23 -159 74 c-231 108
-741 347 -1030 483 -137 65 -324 153 -415 195 -91 42 -311 146 -490 230 -1210
568 -1630 765 -1635 765 -3 0 -5 -15 -5 -33 0 -33 2 -35 103 -82 56 -26 253
-119 437 -205 184 -87 409 -193 500 -235 91 -43 208 -98 260 -122 144 -68 864
-406 1040 -488 85 -40 315 -148 510 -240 195 -91 466 -219 603 -283 l247 -116
-6 -76 c-11 -126 38 -244 126 -305 22 -15 40 -32 40 -38 0 -8 -316 -786 -580
-1427 -37 -91 -174 -424 -303 -740 -129 -316 -406 -993 -615 -1505 -210 -511
-385 -942 -391 -956 -9 -25 -11 -26 -63 -16 -41 7 -67 6 -113 -6 -33 -9 -63
-12 -67 -9 -6 7 -242 429 -443 792 -56 102 -223 401 -370 665 -147 264 -412
740 -589 1058 l-321 578 -3 -62 -3 -61 262 -472 c144 -259 275 -496 292 -526
16 -30 47 -84 67 -120 21 -36 151 -270 290 -520 138 -250 295 -531 348 -625
52 -93 97 -174 100 -180 17 -34 -29 35 -215 320 -115 176 -252 385 -304 465
-53 80 -129 197 -171 260 -41 63 -124 189 -183 280 -147 224 -211 322 -359
549 l-126 194 0 -60 c0 -59 2 -63 88 -194 48 -74 121 -186 162 -249 76 -116
362 -553 553 -845 115 -174 655 -1001 774 -1183 l73 -113 -34 -42 c-42 -52
-62 -91 -77 -150 l-11 -47 -764 0 -764 0 0 -34 0 -34 763 5 763 5 17 -60 c9
-33 32 -81 52 -106 21 -27 33 -52 28 -59 -8 -13 -406 -532 -847 -1102 -148
-192 -341 -442 -428 -555 -87 -113 -201 -260 -253 -327 -93 -120 -95 -124 -95
-175 l0 -53 28 34 c15 19 171 222 347 450 177 229 406 526 510 661 104 135
310 403 458 595 149 193 274 355 280 360 13 13 1 -10 -103 -200 -48 -88 -147
-270 -220 -405 -73 -135 -145 -267 -160 -295 -23 -42 -127 -234 -398 -735 -19
-36 -42 -78 -52 -95 -9 -16 -39 -70 -65 -120 -26 -49 -77 -144 -113 -210 -36
-66 -120 -221 -187 -345 -67 -124 -168 -309 -224 -413 l-102 -187 3 -65 3 -64
111 207 c61 114 270 500 464 857 341 628 636 1174 726 1340 384 711 423 780
446 777 13 -2 62 -6 109 -9 l87 -5 251 -711 c137 -392 272 -775 300 -852 27
-77 133 -378 236 -670 102 -291 219 -622 259 -735 l73 -205 31 -3 c18 -2 32 1
32 7 0 6 -24 80 -54 163 -30 84 -72 205 -94 268 -22 63 -92 261 -155 440 -267
754 -810 2296 -814 2310 -3 9 13 28 41 47 l45 32 523 -446 c288 -245 638 -543
778 -662 140 -119 344 -293 454 -386 109 -94 233 -199 276 -235 42 -36 290
-247 551 -470 802 -684 1201 -1024 1230 -1048 22 -18 38 -22 75 -20 l46 3
-159 135 c-87 74 -248 211 -358 305 -175 150 -724 617 -1790 1525 -170 145
-384 327 -475 405 -91 78 -302 258 -470 400 -168 143 -380 324 -472 402 l-166
143 26 60 c22 50 31 60 52 60 14 0 147 -13 295 -30 149 -16 630 -68 1070 -115
440 -47 946 -102 1125 -121 179 -19 618 -66 975 -105 358 -38 729 -78 825 -89
96 -11 306 -33 465 -50 160 -16 477 -50 705 -75 228 -25 505 -54 615 -66 110
-11 205 -22 211 -24 6 -2 14 -26 17 -53 11 -92 81 -198 157 -237 17 -9 30 -20
30 -24 0 -5 -184 -559 -409 -1231 l-410 -1221 36 3 35 3 406 1212 c403 1204
407 1213 433 1213 l27 0 6 -142 c3 -79 8 -219 11 -313 5 -152 12 -369 30 -880
4 -88 10 -259 15 -380 5 -121 12 -331 16 -467 l7 -248 35 0 34 0 -6 153 c-12
293 -19 490 -31 852 -11 355 -16 475 -21 580 -7 160 -24 699 -24 776 l0 65 54
17 c67 22 128 66 168 121 l30 44 127 -60 c69 -33 259 -122 421 -198 1108 -517
1172 -548 1167 -557 -3 -4 -79 -183 -170 -398 -91 -214 -203 -480 -250 -590
-264 -621 -337 -794 -337 -799 0 -3 15 -6 33 -6 31 0 33 3 74 97 74 171 303
713 509 1200 109 260 202 473 206 473 4 0 50 -20 103 -45 110 -52 650 -305
865 -405 80 -37 222 -104 315 -148 94 -43 307 -143 475 -222 168 -78 388 -181
490 -230 102 -48 349 -164 550 -258 201 -93 506 -236 677 -316 l313 -146 72 1
73 0 -105 50 c-91 44 -820 386 -1340 629 -629 294 -1079 504 -1160 543 -52 24
-268 126 -480 225 -391 183 -508 238 -660 310 -47 22 -102 47 -122 55 -21 9
-38 20 -38 26 0 5 51 130 114 278 145 341 362 853 506 1193 147 346 254 599
407 960 200 471 282 663 433 1020 78 184 192 454 254 600 62 146 159 375 216
510 l104 246 91 -1 91 0 367 -1080 c202 -594 429 -1264 506 -1490 76 -225 264
-777 416 -1225 152 -448 358 -1053 457 -1345 99 -291 220 -649 270 -795 49
-146 124 -365 165 -487 l75 -223 34 0 c19 0 34 2 34 3 0 2 -18 57 -41 123 -48
141 -343 1008 -469 1379 -48 143 -171 505 -273 805 -416 1225 -1036 3052
-1291 3804 -103 302 -183 552 -179 556 63 51 84 61 101 48 19 -15 1325 -1123
1771 -1503 162 -137 372 -315 466 -395 95 -80 645 -547 1223 -1039 l1052 -893
-57 -82 c-31 -44 -93 -130 -137 -191 -43 -60 -114 -159 -156 -220 -42 -60
-197 -281 -345 -490 -148 -209 -507 -717 -798 -1130 -291 -412 -534 -756 -540
-763 -7 -9 0 -12 31 -12 l41 0 334 473 c183 259 420 594 525 742 105 149 226
320 268 380 102 145 456 645 508 717 23 31 115 163 206 292 91 130 168 236
171 236 3 0 105 -84 225 -187 245 -209 263 -223 924 -784 261 -222 714 -606
1005 -854 292 -248 599 -508 683 -579 83 -71 152 -132 152 -135 0 -3 -11 -33
-25 -66 -13 -33 -25 -75 -25 -92 0 -18 -5 -33 -11 -33 -21 0 -1184 -100 -1204
-104 -11 -2 140 -4 335 -4 297 -1 398 3 615 22 143 13 263 22 268 19 4 -2 7
-13 7 -24 0 -18 10 -19 320 -19 368 0 335 -11 335 107 0 60 3 72 15 68 8 -2
143 -34 300 -70 157 -36 322 -75 368 -86 63 -14 117 -19 215 -18 l132 1 -140
34 c-168 41 -284 68 -550 130 -172 39 -227 54 -203 54 6 0 654 154 1473 350
483 116 1233 295 1865 445 124 30 272 65 330 79 288 69 624 149 1220 291 360
86 691 164 735 175 44 10 269 64 500 119 231 56 485 116 565 136 80 19 363 86
630 150 267 64 529 126 582 139 l97 23 578 -555 c318 -305 679 -652 803 -772
870 -838 828 -800 876 -800 24 0 44 2 44 3 0 2 -98 98 -217 212 -120 115 -326
313 -458 440 -408 392 -597 574 -1078 1035 -256 245 -466 448 -466 452 -1 3
14 9 32 13 30 7 423 100 757 180 80 19 381 91 670 160 289 69 696 166 905 216
209 50 443 106 520 124 77 19 186 45 242 58 l102 25 21 -43 c27 -55 107 -130
168 -157 33 -15 69 -22 119 -22 l72 -1 11 -45 c6 -25 51 -187 100 -360 163
-575 640 -2280 640 -2285 0 -3 16 -5 36 -5 28 0 35 3 31 15 -4 8 -44 151 -91
317 -198 714 -628 2249 -647 2312 -11 37 -19 69 -17 70 2 1 24 14 50 29 126
73 192 247 144 384 l-14 39 112 66 c131 78 484 285 541 318 22 12 252 146 510
298 259 151 506 296 550 322 44 25 172 100 285 167 113 66 381 223 595 348
215 125 449 262 520 305 72 42 180 105 240 140 61 35 196 114 300 176 105 61
413 242 685 401 272 159 720 421 995 582 275 161 608 356 740 434 132 77 272
159 310 182 218 130 453 265 461 265 5 0 26 -17 48 -37 37 -35 38 -37 23 -62
-8 -14 -78 -138 -155 -276 -245 -440 -881 -1575 -972 -1735 -48 -85 -102 -182
-120 -215 -34 -62 -125 -225 -238 -425 -36 -63 -97 -173 -137 -245 -40 -71
-197 -353 -350 -625 -153 -272 -343 -612 -423 -755 -79 -143 -184 -330 -232
-415 -48 -85 -289 -515 -535 -955 -246 -440 -518 -926 -605 -1080 -86 -154
-165 -295 -174 -312 l-17 -33 41 0 c22 0 40 4 40 9 0 4 77 145 171 312 94 167
206 367 249 444 43 77 160 286 260 465 154 273 275 489 445 795 15 28 46 82
68 120 22 39 51 90 65 115 96 172 225 403 282 505 37 66 174 311 305 545 131
234 277 495 325 580 48 85 163 290 255 455 92 165 209 374 260 465 92 164 546
973 863 1540 158 284 222 398 346 616 l57 102 47 -15 c107 -33 262 12 336 98
28 33 39 40 57 34 13 -4 142 -68 288 -142 147 -73 285 -142 309 -153 l42 -19
0 35 0 34 -315 157 c-173 87 -315 160 -315 163 1 32 19 31 311 -14 162 -25
300 -46 307 -46 10 0 19 58 10 61 -2 0 -138 21 -303 47 l-300 47 -8 55 c-9 68
-44 144 -87 193 l-32 37 123 188 c68 103 232 353 366 556 242 366 243 368 243
422 0 30 -2 54 -4 54 -2 0 -95 -140 -207 -310 -112 -171 -288 -438 -391 -594
l-187 -283 -53 18 c-69 24 -145 24 -210 -1 -31 -11 -56 -16 -61 -11 -9 9 -111
156 -523 751 -109 157 -260 375 -336 485 -77 110 -259 374 -406 586 -147 212
-607 877 -1022 1477 l-755 1091 -37 1 c-21 0 -38 -2 -38 -5 0 -4 1586 -2296
2325 -3360 22 -33 117 -170 210 -305 92 -135 194 -281 225 -325 197 -278 302
-439 294 -450 -11 -14 -65 -96 -80 -121 -11 -18 -14 -18 -105 4 -52 12 -389
92 -749 177 -840 200 -1254 298 -1635 389 -104 25 -381 91 -615 146 -2124 504
-2175 516 -2174 531 1 8 65 217 143 464 79 248 255 808 393 1245 137 437 307
977 378 1200 l128 405 -30 3 c-16 2 -32 1 -35 -1 -3 -3 -53 -160 -113 -349
-242 -766 -404 -1282 -641 -2038 -313 -996 -288 -920 -305 -920 -8 0 -187 41
-397 91 -852 202 -979 232 -1152 273 -99 24 -250 60 -336 80 l-156 37 -5 72
c-5 69 -29 138 -64 177 -14 16 56 92 1921 2060 232 245 436 462 455 483 l33
38 -45 -3 -46 -3 -738 -780 c-1482 -1567 -1629 -1720 -1644 -1719 -8 1 -42 14
-75 28 -33 14 -74 26 -92 26 -30 0 -32 3 -38 43 -3 23 -53 528 -110 1122 -58
594 -109 1121 -115 1172 -5 51 -10 97 -10 103 0 5 -13 10 -30 10 -37 0 -37 4
-10 -260 11 -107 31 -312 45 -455 14 -143 57 -583 95 -977 39 -395 70 -729 70
-743 0 -16 -6 -25 -15 -25 -9 0 -37 -11 -63 -24 l-47 -23 -430 504 c-435 511
-565 664 -1244 1458 -207 242 -396 464 -420 493 -41 48 -47 52 -88 52 l-44 0
84 -97 c487 -569 2074 -2430 2081 -2441 5 -8 -4 -31 -22 -60 -17 -26 -36 -67
-43 -92 -7 -25 -15 -48 -18 -51 -6 -7 -1296 -14 -4516 -25 l-1820 -7 -32 65
-31 64 541 520 c298 285 614 589 702 675 88 85 403 389 700 674 297 285 599
576 671 647 l132 128 -47 0 -46 -1 -1350 -1298 -1349 -1299 -45 26 c-24 14
-71 33 -105 42 l-61 17 -32 479 c-30 457 -53 804 -73 1089 -5 72 -14 204 -20
295 -6 91 -17 262 -25 380 -8 118 -15 227 -15 243 0 24 -3 27 -35 27 l-35 0 5
-47 c5 -57 6 -62 50 -738 19 -291 39 -593 45 -670 26 -361 71 -1067 68 -1069
-15 -7 -110 -37 -112 -34 -2 2 -83 118 -181 258 -99 140 -244 347 -324 460
-245 348 -271 385 -506 720 -125 179 -258 368 -295 420 -134 190 -308 438
-399 568 -92 131 -93 132 -132 132 l-40 0 73 -105 c40 -57 129 -184 198 -282
69 -97 148 -209 175 -249 28 -39 127 -180 220 -312 94 -133 206 -293 250 -356
44 -62 127 -181 184 -262 159 -227 471 -669 604 -858 80 -112 117 -173 111
-181 -74 -96 -109 -188 -102 -265 l5 -47 -651 -208 c-358 -115 -696 -223 -751
-241 -156 -51 -1288 -412 -1405 -449 -58 -18 -254 -80 -436 -139 -183 -58
-336 -106 -340 -106 -5 0 -21 22 -36 49 -27 46 -77 99 -126 131 l-23 15 114
325 c63 179 195 550 292 825 97 275 241 682 320 905 78 223 252 713 385 1090
134 377 245 693 248 703 3 14 -2 17 -29 17 l-34 0 -77 -218 c-42 -119 -131
-372 -198 -562 -67 -190 -136 -383 -152 -430 -17 -47 -158 -447 -315 -890
-156 -443 -346 -979 -421 -1192 -75 -213 -137 -386 -139 -384 -2 1 8 56 21
122 36 174 183 889 292 1424 297 1451 434 2124 434 2127 0 2 -15 3 -33 3 l-32
0 -83 -407 c-46 -225 -105 -516 -132 -648 -200 -974 -463 -2262 -520 -2545
-22 -107 -42 -205 -45 -216 -4 -18 -14 -22 -70 -26 -41 -4 -85 -15 -120 -32
-62 -31 -138 -110 -155 -161 -6 -19 -17 -35 -24 -35 -7 0 -59 13 -117 29 -57
16 -606 167 -1219 336 -613 168 -1153 317 -1200 330 -47 13 -240 66 -430 119
-190 52 -592 163 -895 246 -302 84 -662 183 -800 220 -137 38 -383 105 -545
150 -162 45 -810 223 -1440 396 -1221 336 -2135 588 -2499 688 l-223 61 0 73
c0 40 2 75 4 77 3 3 247 68 544 145 296 77 685 179 864 225 179 47 611 159
960 250 349 91 772 201 940 245 563 147 1303 339 1565 407 l260 68 -118 3
-119 3 -771 -201 c-425 -111 -848 -221 -942 -246 -232 -60 -644 -168 -1245
-324 -278 -72 -667 -174 -865 -225 -198 -52 -526 -137 -730 -190 l-370 -96
-15 23 c-37 58 -104 117 -159 142 -44 20 -58 31 -55 44 2 9 17 125 34 257 17
132 37 287 45 345 8 58 23 175 35 260 11 85 22 167 25 183 4 25 2 27 -30 27
-19 0 -35 -3 -35 -7 0 -18 -141 -1059 -144 -1069 -2 -6 -29 -14 -59 -17 -71
-7 -143 -44 -195 -101 -65 -71 -86 -125 -86 -226 -1 -86 11 -127 60 -201 l17
-27 -135 -158 c-74 -88 -172 -204 -219 -260 -46 -55 -304 -361 -574 -680 -662
-783 -1064 -1259 -1217 -1441 -71 -84 -133 -155 -139 -159 -34 -21 -16 38 86
281 62 149 213 511 335 805 122 294 335 805 472 1135 138 330 276 663 308 740
58 142 275 663 466 1120 57 138 104 254 104 258 0 4 -15 7 -32 7 l-33 0 -229
-553 c-126 -303 -255 -613 -287 -687 -31 -74 -89 -214 -129 -310 -40 -96 -177
-427 -305 -735 -661 -1590 -784 -1886 -811 -1952 l-29 -72 -65 5 c-47 5 -83 1
-128 -11 -41 -12 -66 -15 -70 -8 -4 5 -74 115 -155 244 -150 236 -406 638
-719 1129 -67 106 -252 397 -392 617 -66 104 -143 224 -171 268 -28 44 -100
157 -159 250 -59 94 -168 265 -242 380 -74 116 -133 215 -132 222 2 6 125 114
273 239 149 125 459 387 690 582 231 195 429 363 440 373 19 19 19 19 -30 19
l-50 -1 -225 -190 c-124 -105 -362 -306 -529 -448 -167 -141 -372 -313 -454
-383 -83 -71 -154 -128 -157 -128 -4 0 -111 163 -238 363 -560 878 -494 782
-536 785 -20 2 -36 0 -36 -3 0 -4 79 -131 177 -283 443 -696 573 -901 573
-909 0 -5 -91 -85 -202 -179 -112 -94 -600 -507 -1086 -917 l-883 -745 -50 34
c-56 38 -112 56 -176 57 -49 0 -44 -9 -72 137 -11 58 -120 598 -241 1200 -121
602 -244 1211 -272 1353 l-52 257 -33 0 c-29 0 -33 -3 -28 -22 3 -13 77 -383
166 -823 172 -860 376 -1873 406 -2021 l18 -91 -52 -26 -52 -26 -128 142
c-198 220 -907 1005 -1918 2122 l-669 740 -45 3 -45 3 19 -23z m5625 -1528
c102 -159 208 -326 235 -370 47 -75 1252 -1967 1427 -2240 44 -69 91 -144 105
-168 l26 -43 -30 -32 c-24 -25 -53 -70 -69 -105 -2 -3 -721 206 -2459 714 -66
20 -273 81 -460 136 -187 55 -439 128 -560 163 -121 36 -287 84 -370 108
l-150 44 3 46 c4 49 -20 145 -45 184 -9 13 -14 25 -12 27 7 5 914 769 1289
1087 206 174 488 411 625 528 138 116 252 211 255 211 3 0 89 -130 190 -290z
m5193 -49 c78 -22 284 -79 457 -126 173 -48 446 -122 605 -167 160 -44 493
-135 740 -203 248 -68 583 -160 745 -205 162 -45 342 -94 400 -110 58 -16 238
-65 400 -110 288 -79 745 -205 1435 -395 187 -51 1193 -328 2235 -615 1042
-287 1965 -541 2050 -564 l155 -42 3 -37 c3 -35 1 -37 -25 -37 -16 0 -281 -27
-588 -60 -640 -69 -960 -103 -1160 -124 -77 -8 -390 -42 -695 -75 -305 -33
-829 -90 -1165 -126 -335 -36 -857 -92 -1160 -125 -302 -33 -824 -89 -1160
-125 -335 -36 -734 -79 -885 -95 -506 -55 -735 -79 -773 -82 -37 -2 -40 0 -51
33 -30 86 -101 164 -184 201 -49 22 -170 31 -223 16 -25 -7 -28 -4 -47 40 -11
26 -52 112 -90 192 -38 80 -175 368 -305 640 -516 1089 -902 1902 -963 2029
-64 134 -73 161 -54 161 16 0 110 91 126 122 8 15 19 28 25 28 5 0 74 -18 152
-39z m-623 -121 c0 -8 -104 -337 -377 -1190 -80 -250 -171 -538 -203 -640
-140 -444 -380 -1193 -382 -1195 -2 -1 -288 30 -637 69 l-634 71 -12 50 c-13
57 -28 88 -62 128 -13 16 -20 34 -16 40 4 7 336 401 738 876 401 476 804 953
895 1061 681 809 638 760 665 748 14 -6 25 -14 25 -18z m200 -33 l46 5 31 -68
c17 -38 82 -175 143 -304 109 -229 425 -895 520 -1095 26 -55 90 -190 143
-300 149 -314 384 -809 502 -1058 l108 -227 -55 -58 c-32 -34 -64 -80 -77
-113 l-23 -55 -332 38 c-182 20 -369 41 -416 46 -588 63 -1667 187 -1673 192
-7 6 225 757 347 1125 13 39 153 478 311 976 l287 905 47 -7 c25 -4 66 -5 91
-2z m20811 -1067 c86 0 89 -1 89 -22 0 -13 9 -43 20 -67 11 -24 20 -45 20 -47
0 -2 -172 -132 -382 -290 -679 -510 -2304 -1731 -2630 -1976 -174 -131 -319
-238 -323 -238 -3 0 -193 156 -422 348 -229 191 -443 370 -477 397 -80 66
-1656 1379 -1771 1476 -49 41 -154 128 -232 193 l-143 118 0 43 c0 24 3 46 8
48 4 3 1382 8 3062 12 1680 4 3057 9 3059 11 3 3 11 2 19 -1 7 -3 54 -5 103
-5z m1414 -234 c154 -36 523 -124 820 -195 l540 -128 -2 -26 c-1 -15 -99 -336
-218 -714 -297 -945 -495 -1573 -565 -1793 -32 -102 -120 -381 -195 -620 -75
-239 -201 -640 -280 -890 -79 -250 -191 -608 -250 -795 -59 -187 -118 -375
-131 -417 -25 -77 -25 -78 -59 -78 -28 0 -36 4 -39 23 -3 12 -26 236 -51 497
-25 261 -73 745 -105 1075 -33 330 -73 740 -90 910 -40 409 -69 701 -75 750
-2 22 -16 159 -30 305 -65 671 -195 1978 -199 2008 -3 21 -1 32 7 32 24 0 114
48 151 81 21 18 51 56 67 84 l29 52 198 -47 c108 -26 323 -77 477 -114z
m-8295 43 c20 -47 99 -123 152 -145 27 -10 48 -23 48 -27 0 -7 -400 -804
-1037 -2067 -129 -256 -239 -469 -243 -474 -8 -7 -222 107 -765 409 -71 40
-267 148 -435 240 -168 92 -363 200 -435 240 -71 39 -182 100 -245 135 -63 35
-173 96 -245 135 -71 40 -197 109 -280 155 -82 45 -152 84 -153 86 -2 1 2 20
9 41 7 21 15 65 18 97 6 59 6 60 46 72 37 12 222 71 770 245 121 39 281 90
355 114 74 24 574 184 1110 355 536 171 1049 336 1140 365 91 30 168 54 171
55 4 0 12 -14 19 -31z m2110 -1234 c811 -675 1483 -1235 1493 -1245 18 -16 0
-31 -395 -326 -227 -170 -659 -495 -959 -721 -518 -390 -548 -411 -563 -394
-43 47 -205 102 -250 85 -8 -3 -17 -1 -20 4 -3 5 -78 317 -166 693 -229 971
-544 2314 -591 2514 -22 94 -51 220 -65 280 -15 61 -34 143 -44 184 l-19 75
28 35 c15 20 31 44 35 55 6 17 8 17 24 4 9 -8 681 -568 1492 -1243z m4982
1200 c40 -34 98 -58 170 -70 42 -8 37 19 68 -305 30 -311 139 -1413 280 -2835
33 -330 89 -899 125 -1265 36 -366 76 -775 90 -910 14 -135 25 -254 25 -265 0
-15 -11 -24 -41 -33 -23 -7 -62 -27 -86 -43 l-44 -31 -65 54 c-537 442 -3882
3235 -3881 3240 1 4 486 370 1077 814 591 445 1336 1005 1655 1245 319 241
582 438 583 438 2 1 22 -15 44 -34z m-6558 -342 c32 -137 89 -378 126 -538 38
-159 148 -627 245 -1040 97 -412 212 -901 255 -1085 154 -652 191 -813 188
-814 -2 -1 -20 -9 -41 -19 -20 -9 -57 -35 -82 -58 l-45 -41 -717 395 c-1369
754 -1468 809 -1476 817 -5 4 282 585 637 1291 l645 1284 62 8 c34 4 78 16 98
27 20 10 39 19 42 20 3 0 31 -111 63 -247z m9385 -53 c176 -42 690 -164 1496
-355 270 -64 553 -131 630 -150 149 -35 186 -44 1010 -240 292 -69 566 -134
610 -145 44 -10 186 -44 315 -75 129 -30 321 -76 425 -101 105 -25 276 -66
380 -90 105 -25 198 -47 208 -50 12 -4 17 -16 17 -47 0 -41 11 -95 24 -128 5
-12 -38 -42 -201 -136 -198 -115 -459 -268 -928 -543 -115 -68 -365 -214 -555
-325 -190 -111 -478 -280 -640 -375 -162 -95 -380 -223 -485 -283 -104 -60
-260 -151 -345 -202 -85 -51 -211 -125 -280 -165 -116 -68 -186 -109 -555
-325 -77 -45 -207 -121 -290 -169 -82 -48 -175 -102 -205 -121 -30 -18 -284
-167 -565 -330 -280 -164 -625 -365 -765 -448 -830 -488 -1018 -597 -1027
-597 -5 0 -22 14 -39 31 -16 17 -45 40 -64 51 -19 12 -36 22 -38 23 -1 1 128
418 288 926 499 1585 757 2402 1106 3514 282 899 281 895 297 895 6 0 85 -18
176 -40z m-29731 -319 c2106 -615 2666 -779 2723 -795 l56 -17 6 -77 c3 -42 9
-89 12 -103 6 -25 0 -30 -97 -86 -56 -33 -295 -171 -530 -306 -235 -135 -485
-280 -555 -320 -70 -41 -220 -127 -333 -192 -113 -65 -289 -167 -392 -226
-102 -60 -190 -109 -195 -109 -5 0 -26 23 -48 51 -22 29 -63 79 -90 113 -28
33 -195 241 -371 461 -176 220 -574 717 -884 1105 -311 387 -571 713 -579 723
-11 16 -10 21 6 40 11 12 28 37 39 55 10 17 22 32 27 32 5 0 547 -157 1205
-349z m-861 -401 c253 -316 692 -865 976 -1219 283 -355 514 -648 511 -652 -2
-4 -32 -23 -67 -42 -34 -19 -118 -67 -187 -107 -240 -139 -716 -414 -840 -485
-69 -39 -291 -168 -495 -285 -203 -118 -480 -277 -615 -355 -135 -78 -380
-220 -545 -315 -165 -95 -356 -206 -425 -245 -69 -39 -291 -167 -493 -284
l-368 -212 -22 23 c-12 13 -39 37 -59 53 l-37 30 254 620 c140 341 277 674
304 740 28 66 107 260 177 430 69 171 227 558 351 860 124 303 280 685 348
850 267 656 469 1150 470 1152 1 1 25 -1 53 -6 61 -9 140 3 192 29 27 14 38
16 46 7 6 -7 218 -271 471 -587z m16426 -155 c10 -24 36 -63 58 -85 24 -24 37
-46 33 -53 -4 -7 -62 -88 -128 -182 -66 -93 -139 -196 -161 -227 -127 -181
-261 -371 -415 -588 -158 -223 -754 -1065 -838 -1185 -19 -27 -137 -194 -262
-370 -125 -176 -413 -583 -640 -905 -227 -322 -428 -605 -445 -630 -18 -25
-81 -115 -142 -200 -60 -85 -147 -208 -193 -272 l-83 -118 -60 53 c-33 28 -92
79 -131 112 -39 32 -280 237 -536 454 -986 838 -1599 1359 -1960 1665 -206
175 -487 414 -625 531 -137 117 -450 383 -695 590 -245 208 -460 391 -479 407
l-34 30 22 46 c13 26 25 70 28 98 l6 52 56 6 c31 4 220 24 421 46 201 22 430
46 510 55 80 8 352 37 605 65 253 27 714 77 1025 110 311 33 709 76 885 95
404 44 1617 175 2045 220 179 19 406 44 505 55 99 11 394 43 655 71 261 28
567 61 680 74 291 32 271 34 293 -20z m687 -128 c63 -35 228 -126 365 -202
138 -75 313 -172 390 -215 77 -42 257 -142 400 -220 143 -79 355 -196 470
-260 116 -64 348 -192 517 -285 l307 -169 -601 -1196 c-330 -657 -730 -1451
-888 -1765 -299 -593 -1192 -2369 -1358 -2700 -53 -104 -96 -191 -97 -192 0
-1 -18 2 -39 8 l-39 11 7 281 c4 155 9 309 11 342 2 33 6 161 10 285 3 124 8
288 10 365 3 77 7 226 10 330 6 216 13 456 20 625 3 63 7 214 10 335 3 121 7
276 10 345 9 244 21 609 40 1260 3 102 8 246 10 320 3 74 7 221 10 325 3 105
7 249 10 320 3 72 7 216 10 320 3 105 7 244 10 310 2 66 7 210 10 320 3 110 7
254 10 320 3 66 8 230 11 365 4 135 8 263 9 285 2 22 3 47 4 56 1 11 14 19 42
23 54 9 108 37 150 79 19 19 36 35 39 36 3 0 57 -28 120 -62z m-475 -50 l50
-13 0 -135 c0 -143 -13 -622 -20 -754 -3 -44 -9 -249 -15 -455 -6 -206 -15
-517 -20 -690 -6 -173 -12 -389 -15 -480 -9 -285 -15 -471 -20 -605 -3 -71 -7
-227 -10 -345 -3 -118 -8 -262 -10 -320 -2 -58 -7 -195 -10 -305 -3 -110 -8
-258 -10 -330 -3 -71 -7 -222 -10 -335 -3 -113 -7 -254 -10 -315 -2 -60 -7
-202 -10 -315 -3 -113 -8 -266 -10 -340 -3 -74 -12 -355 -20 -625 -22 -748
-24 -775 -46 -775 -31 0 -128 -40 -159 -67 l-30 -25 -156 134 c-85 73 -174
149 -197 168 -81 68 -2626 2228 -2641 2241 -4 4 25 54 65 111 40 56 175 247
299 423 125 176 243 343 262 370 114 162 730 1033 1128 1595 564 797 836 1182
962 1360 144 205 559 792 577 817 19 26 14 26 76 10z m-11690 -247 c303 -33
564 -64 581 -68 l32 -7 -454 -1425 c-250 -784 -483 -1517 -519 -1630 -36 -113
-129 -407 -208 -655 l-143 -450 -43 0 c-23 -1 -44 2 -46 5 -1 3 -6 118 -9 255
-3 138 -8 322 -11 410 -3 88 -7 234 -10 325 -3 91 -7 264 -10 385 -3 121 -7
283 -10 360 -3 77 -7 237 -10 355 -12 504 -25 974 -30 1090 -2 69 -8 262 -11
430 -4 168 -7 324 -8 348 l-1 43 58 23 c31 13 73 35 91 50 43 32 93 108 107
160 18 71 16 69 62 63 23 -3 290 -33 592 -67z m1070 -120 c322 -36 501 -56
1110 -125 121 -13 366 -40 545 -60 438 -48 404 -40 411 -100 8 -58 22 -97 49
-134 l19 -27 -532 -524 c-293 -288 -820 -808 -1172 -1156 -352 -347 -964 -950
-1360 -1341 l-720 -710 -32 15 c-18 9 -33 22 -33 29 0 8 97 319 216 691 119
372 230 720 246 772 16 52 174 547 350 1100 457 1436 508 1598 508 1604 0 10
35 7 395 -34z m-2181 -81 c24 -10 65 -22 90 -25 l46 -7 1 -96 c1 -53 3 -114 4
-136 1 -22 6 -179 9 -350 4 -170 9 -341 11 -380 2 -38 6 -200 10 -360 3 -159
8 -333 10 -385 2 -52 7 -207 10 -345 3 -137 8 -308 10 -380 2 -71 7 -229 10
-350 3 -121 7 -296 10 -390 3 -93 7 -271 10 -395 3 -124 8 -273 11 -332 l5
-106 -47 -21 c-25 -12 -50 -21 -54 -21 -5 0 -59 64 -122 143 -62 78 -404 504
-758 945 -355 442 -656 819 -670 837 -14 18 -204 257 -424 531 -219 273 -399
503 -400 511 -1 8 98 70 239 152 132 76 368 212 525 303 256 149 532 308 785
453 355 204 503 289 519 301 18 12 25 9 68 -32 27 -25 68 -54 92 -65z m4392
-437 l22 -17 -220 -515 c-120 -283 -266 -627 -324 -765 -58 -137 -168 -396
-244 -575 -76 -179 -297 -698 -490 -1155 -193 -456 -403 -949 -465 -1095 -146
-343 -274 -646 -285 -676 -5 -13 -14 -24 -20 -24 -9 0 -175 76 -600 275 -85
40 -276 130 -425 199 -148 70 -363 170 -477 223 l-207 97 1 87 c1 80 -2 94
-30 152 -18 36 -32 69 -32 74 0 4 57 65 128 133 176 173 2285 2264 3022 2997
333 332 610 603 615 603 6 0 20 -8 31 -18z m18094 -1818 c1086 -905 1979
-1649 1983 -1653 13 -12 -26 -71 -43 -66 -8 3 -125 36 -260 75 -135 39 -501
145 -815 236 -607 176 -1028 298 -2655 769 -564 164 -1185 343 -1380 400 -195
57 -430 125 -522 151 l-168 48 0 63 c0 39 -8 83 -21 118 -12 31 -18 59 -14 63
12 12 1910 1440 1915 1441 3 1 894 -740 1980 -1645z m-6621 1325 c80 -44 330
-182 891 -491 184 -102 512 -283 728 -402 547 -301 504 -275 497 -297 -28 -86
-21 -198 15 -269 l19 -36 -282 -240 c-155 -131 -374 -318 -487 -414 -114 -96
-476 -404 -806 -685 -329 -280 -837 -712 -1129 -960 -874 -743 -1237 -1052
-1705 -1449 -245 -208 -505 -429 -578 -492 l-133 -114 -29 21 -28 21 237 472
c131 259 496 984 811 1611 315 627 666 1325 780 1550 114 226 411 816 660
1313 250 496 456 902 459 902 2 0 38 -19 80 -41z m-17548 -979 c333 -415 867
-1082 1187 -1482 320 -400 582 -729 582 -733 0 -3 -16 -28 -35 -56 -19 -28
-37 -66 -41 -85 -3 -19 -10 -34 -15 -34 -5 0 -89 9 -187 20 -97 10 -262 28
-367 39 -182 20 -465 50 -1165 126 -179 19 -431 46 -560 59 -129 14 -676 73
-1215 131 -539 58 -1061 114 -1160 125 -171 18 -419 45 -835 89 -102 11 -315
34 -475 51 -391 41 -350 30 -362 93 -6 28 -14 61 -17 72 -6 17 4 26 56 54 60
32 191 107 438 251 63 37 239 138 390 225 505 291 673 387 980 565 168 97 429
248 580 335 151 87 385 222 520 300 135 78 385 222 555 320 171 98 359 207
420 242 60 34 112 59 116 55 3 -4 278 -347 610 -762z m20632 -546 c183 -53
445 -129 582 -169 138 -40 480 -139 760 -220 281 -81 724 -209 985 -285 261
-76 603 -175 760 -220 157 -45 431 -125 610 -177 179 -52 442 -128 585 -170
143 -41 468 -135 723 -209 255 -74 464 -134 466 -134 1 0 2 -25 2 -55 -1 -49
-3 -55 -26 -60 -32 -9 -488 -118 -815 -195 -137 -33 -335 -80 -440 -105 -104
-25 -302 -72 -440 -105 -137 -33 -333 -80 -435 -104 -102 -24 -396 -94 -653
-156 l-468 -111 -191 183 c-104 101 -219 210 -254 243 -35 33 -531 509 -1102
1059 l-1040 999 24 35 c13 19 24 39 24 43 0 5 3 9 6 9 3 0 155 -43 337 -96z
m-849 -54 c63 -43 119 -60 196 -60 73 0 134 17 181 51 16 11 33 19 39 17 5 -2
46 -39 92 -83 46 -45 313 -301 593 -570 281 -269 526 -505 545 -523 19 -19
324 -311 677 -650 389 -374 637 -619 630 -623 -7 -4 -52 -16 -102 -28 -49 -11
-202 -47 -340 -80 -572 -136 -899 -214 -1220 -291 -343 -82 -911 -218 -1680
-401 -231 -55 -532 -127 -670 -160 -137 -33 -333 -80 -435 -104 -102 -24 -300
-71 -440 -105 -140 -34 -329 -79 -420 -100 -91 -21 -345 -82 -565 -135 -220
-53 -524 -125 -675 -161 -151 -36 -367 -87 -480 -114 -113 -27 -383 -91 -600
-143 -505 -122 -463 -115 -478 -81 -7 14 -11 27 -10 29 12 8 808 683 1538
1305 372 317 1618 1376 2030 1725 195 166 623 530 950 808 327 279 596 507
597 507 1 0 22 -14 47 -30z"/>
<path d="M38271 12066 c4 -4 683 -508 1234 -916 275 -203 921 -683 1395 -1035
91 -67 291 -215 445 -330 154 -114 286 -212 293 -217 9 -8 12 -1 12 31 l0 41
-262 195 c-145 107 -531 393 -858 636 -327 242 -660 489 -740 549 -80 59 -235
174 -345 255 -208 154 -435 323 -835 620 l-235 175 -54 0 c-30 0 -52 -2 -50
-4z"/>
</g>
</svg>
