<?xml version="1.0" standalone="no"?>
<!DOCTYPE svg PUBLIC "-//W3C//DTD SVG 20010904//EN"
 "http://www.w3.org/TR/2001/REC-SVG-20010904/DTD/svg10.dtd">
<svg version="1.0" xmlns="http://www.w3.org/2000/svg"
 width="1538.000000pt" height="357.000000pt" viewBox="0 0 1538.000000 357.000000"
 preserveAspectRatio="xMidYMid meet">

<g transform="translate(0.000000,357.000000) scale(0.100000,-0.100000)"
fill="#000000" stroke="none">
<path d="M1595 3558 c-60 -33 -73 -105 -29 -158 24 -28 32 -31 76 -29 l49 3
579 -438 c319 -241 578 -441 576 -445 -10 -18 -426 -1292 -426 -1305 0 -8 8
-19 18 -24 18 -10 257 -22 279 -15 7 3 60 152 119 331 58 180 164 506 235 725
71 219 129 406 129 416 0 11 -164 142 -462 372 -254 194 -484 371 -510 392
-40 32 -48 43 -48 71 0 74 -106 114 -163 62 -47 -44 -48 -106 -1 -153 21 -21
32 -24 72 -21 l47 4 455 -348 c250 -191 470 -360 489 -375 l34 -29 -216 -659
c-118 -363 -218 -670 -222 -682 -6 -21 -12 -23 -82 -23 -56 0 -74 3 -70 13 30
82 407 1259 407 1274 0 15 -160 142 -595 474 -538 410 -595 457 -595 482 0 39
-15 64 -50 82 -34 18 -67 19 -95 3z"/>
<path d="M815 2926 c-450 -338 -513 -382 -532 -373 -56 25 -123 -29 -123 -100
0 -125 169 -141 189 -18 6 37 20 49 495 407 269 203 495 368 503 366 7 -2 267
-189 577 -417 l564 -413 -23 -67 c-12 -36 -27 -65 -33 -64 -6 2 -248 176 -538
388 -290 212 -533 385 -540 383 -7 -2 -279 -203 -604 -448 -551 -414 -594
-445 -627 -442 -73 6 -123 -38 -123 -109 0 -42 56 -99 98 -99 44 0 91 43 98
91 6 37 22 50 576 471 313 238 575 434 582 436 6 1 256 -177 555 -398 299
-220 546 -400 550 -400 23 0 43 39 81 152 26 80 38 133 33 142 -4 8 -253 193
-553 412 -300 218 -572 417 -605 441 -32 23 -66 43 -75 42 -8 0 -244 -173
-525 -383z"/>
<path d="M6860 2761 c-30 -9 -66 -23 -79 -31 -46 -24 -123 -104 -147 -152 -53
-106 -54 -113 -54 -788 0 -575 1 -631 18 -691 54 -194 202 -299 420 -299 215
0 358 92 422 272 20 55 23 89 27 266 l5 202 -140 0 c-118 0 -141 -2 -146 -16
-3 -9 -6 -88 -6 -177 0 -134 -3 -168 -18 -196 -26 -52 -62 -74 -124 -74 -72
-1 -115 23 -139 78 -19 42 -19 69 -17 654 3 599 3 610 24 638 46 63 151 81
212 36 52 -38 62 -74 62 -230 l0 -143 145 0 145 0 0 138 c0 80 -6 165 -15 205
-35 166 -143 281 -297 317 -71 16 -236 11 -298 -9z"/>
<path d="M13755 2746 c-145 -36 -249 -150 -308 -341 -113 -362 -94 -1103 33
-1371 41 -84 117 -166 188 -201 53 -26 66 -28 177 -28 118 0 121 1 183 34 125
68 195 194 225 404 5 34 4 37 -19 37 -13 0 -24 -1 -24 -2 -10 -67 -33 -167
-50 -211 -64 -169 -225 -256 -395 -214 -166 41 -266 189 -310 459 -50 308 -35
825 31 1057 68 237 202 353 393 339 123 -9 212 -67 265 -174 28 -56 56 -161
56 -211 0 -28 3 -33 25 -33 21 0 25 5 25 31 0 16 -7 62 -16 102 -42 187 -143
297 -299 326 -73 14 -116 13 -180 -3z"/>
<path d="M3990 1790 l0 -961 303 3 c288 3 305 4 360 27 109 43 187 125 224
234 16 47 18 113 21 671 2 421 -1 637 -8 673 -27 129 -116 240 -228 285 -54
22 -71 23 -364 26 l-308 3 0 -961z m536 674 c22 -11 40 -31 55 -60 21 -45 21
-52 21 -614 0 -535 -1 -571 -18 -606 -33 -66 -61 -79 -185 -82 l-109 -4 0 691
0 691 101 0 c72 0 111 -5 135 -16z"/>
<path d="M5110 1790 l0 -960 130 0 130 0 1 728 c0 432 4 719 9 707 10 -21 49
-273 150 -960 33 -225 63 -425 66 -442 l6 -33 127 0 127 0 48 323 c26 177 75
504 109 727 l62 405 3 -727 2 -728 145 0 145 0 0 960 0 960 -218 0 -218 0 -47
-347 c-99 -732 -141 -1023 -148 -1023 -6 0 -45 272 -147 1020 l-47 345 -218 3
-217 2 0 -960z"/>
<path d="M7885 2738 c-2 -7 -36 -213 -75 -458 -39 -245 -107 -660 -151 -923
-43 -263 -79 -489 -79 -503 l0 -24 138 0 138 0 23 168 c12 92 24 174 27 183 6
21 158 34 273 24 l78 -7 22 -161 c13 -89 25 -172 28 -184 5 -23 8 -23 154 -23
84 0 149 4 149 9 0 5 -33 211 -74 458 -41 246 -109 662 -151 923 -42 261 -78
487 -81 503 l-6 27 -204 0 c-155 0 -206 -3 -209 -12z m213 -410 c6 -46 34
-240 61 -433 28 -192 53 -369 57 -393 l5 -43 -138 3 c-131 3 -138 4 -136 23 7
86 129 925 133 925 4 0 11 -37 18 -82z"/>
<path d="M8740 1775 l0 -955 25 0 25 0 0 454 0 454 183 4 c148 4 194 9 247 26
195 63 289 222 290 487 0 171 -38 283 -125 370 -95 96 -167 115 -437 115
l-208 0 0 -955z m475 890 c105 -37 175 -107 216 -215 27 -69 38 -259 19 -353
-27 -142 -104 -243 -219 -289 -49 -19 -79 -22 -248 -26 l-193 -4 0 457 0 457
188 -4 c146 -4 198 -9 237 -23z"/>
<path d="M9810 1776 l0 -956 25 0 25 0 0 486 0 486 208 -4 c243 -6 280 -15
353 -88 79 -79 89 -125 99 -445 5 -148 12 -307 16 -352 6 -81 7 -83 31 -83
l26 0 -6 83 c-4 45 -9 190 -13 322 -6 266 -15 336 -48 410 -33 73 -69 110
-141 146 l-64 31 59 29 c129 65 196 188 207 385 14 242 -68 409 -233 475 -55
22 -74 24 -301 27 l-243 3 0 -955z m445 903 c188 -35 285 -174 285 -407 -1
-153 -43 -277 -120 -346 -84 -75 -170 -95 -412 -96 l-148 0 0 430 0 430 168 0
c93 0 195 -5 227 -11z"/>
<path d="M10950 1775 l0 -955 25 0 25 0 0 955 0 955 -25 0 -25 0 0 -955z"/>
<path d="M11250 2721 c0 -8 445 -1845 456 -1883 4 -12 15 -18 37 -18 l32 0
239 943 c131 518 241 948 244 955 3 10 -4 13 -23 10 l-28 -3 -200 -790 c-109
-434 -214 -851 -232 -925 -24 -98 -34 -128 -39 -110 -3 14 -17 75 -31 135 -14
61 -111 467 -217 903 -185 766 -193 792 -215 792 -13 0 -23 -4 -23 -9z"/>
<path d="M12660 2725 c0 -7 -449 -1864 -456 -1887 -4 -14 0 -18 20 -18 30 0
17 -41 126 415 45 187 85 343 89 348 4 4 124 6 266 5 l260 -3 86 -355 c48
-195 90 -367 93 -382 4 -22 11 -28 31 -28 14 0 25 3 25 8 0 4 -107 433 -237
954 l-238 948 -32 0 c-18 0 -33 -2 -33 -5z m166 -582 c68 -272 124 -498 124
-504 0 -5 -99 -9 -250 -9 -143 0 -250 4 -250 9 0 5 42 186 94 403 81 336 142
602 147 634 1 5 4 -2 6 -15 3 -14 61 -247 129 -518z"/>
<path d="M14420 2726 c0 -2 99 -247 220 -545 l220 -542 0 -409 0 -410 25 0 25
0 0 410 0 409 201 468 c111 257 217 503 235 546 l33 77 -27 0 c-29 0 -17 26
-355 -770 -55 -129 -102 -238 -106 -242 -4 -5 -99 221 -211 502 -201 499 -206
510 -232 510 -16 0 -28 -2 -28 -4z"/>
<path d="M785 2239 c-484 -363 -615 -466 -615 -483 0 -12 85 -303 190 -646
181 -594 189 -625 173 -643 -28 -31 -23 -91 12 -127 23 -24 37 -30 73 -30 35
0 49 6 73 29 48 49 32 135 -31 163 -22 9 -34 24 -45 58 -12 37 -185 601 -326
1063 -28 93 -30 110 -18 121 8 8 267 203 577 435 l563 422 54 -43 c30 -24 54
-46 54 -51 1 -4 -234 -183 -521 -398 -288 -215 -531 -400 -540 -412 -16 -21
-9 -48 207 -752 124 -401 225 -735 225 -741 0 -7 -7 -25 -15 -40 -20 -39 -19
-63 5 -101 13 -21 32 -36 59 -44 34 -10 44 -9 73 8 42 24 62 64 54 108 -6 30
-30 58 -78 90 -9 6 -107 303 -233 710 -120 385 -220 705 -222 710 -2 6 246
196 552 423 446 333 555 418 555 436 0 16 -19 38 -62 72 -107 86 -159 124
-169 124 -5 0 -285 -208 -624 -461z"/>
<path d="M3344 2540 c-49 -20 -71 -101 -40 -146 13 -18 -6 -84 -196 -690 -116
-368 -213 -679 -215 -691 -7 -30 -30 -31 -652 -39 -602 -7 -679 -11 -694 -35
-7 -12 -1 -48 24 -134 19 -65 39 -125 46 -134 13 -18 -17 -18 921 4 310 7 568
17 572 21 5 5 65 185 134 399 286 892 259 815 296 833 39 19 64 71 55 113 -9
39 -59 79 -99 79 -73 0 -116 -77 -82 -147 16 -34 16 -36 -53 -251 -38 -119
-122 -381 -186 -582 -65 -201 -119 -367 -121 -369 -3 -3 -1119 -30 -1300 -31
l-81 0 -18 65 c-9 36 -16 68 -13 70 2 2 291 11 642 19 506 11 641 17 651 28
10 10 271 817 433 1337 20 63 31 85 48 91 82 32 87 148 7 189 -25 13 -49 13
-79 1z"/>
<path d="M907 1707 c-59 -39 -109 -78 -112 -86 -6 -16 462 -1398 482 -1422 12
-14 89 -17 629 -29 590 -13 615 -14 625 -32 14 -26 67 -47 101 -41 73 14 101
121 45 169 -40 34 -99 33 -134 -3 l-27 -26 -550 12 c-303 6 -570 11 -593 11
l-41 0 -45 133 c-25 72 -126 372 -225 665 l-181 532 58 40 59 39 100 -297 c56
-163 151 -444 212 -624 l112 -327 61 -5 c34 -3 361 -10 727 -17 l664 -11 27
-29 c58 -62 159 -22 159 63 0 50 -13 74 -51 94 -38 19 -74 12 -110 -22 l-26
-25 -679 11 c-373 6 -687 12 -698 13 -15 2 -55 112 -230 631 -157 465 -217
633 -232 643 -18 12 -31 6 -127 -60z"/>
<path d="M7275 704 c-69 -36 -95 -79 -95 -157 0 -62 25 -108 79 -144 59 -40
179 -28 220 21 24 29 1 35 -36 11 -72 -50 -182 -25 -217 49 -66 140 104 270
223 170 23 -19 31 -21 40 -10 8 10 7 17 -7 28 -54 48 -149 63 -207 32z"/>
<path d="M9375 706 c-66 -30 -113 -114 -102 -183 9 -50 49 -107 90 -126 19
-10 60 -17 90 -17 128 0 205 134 144 250 -40 76 -143 111 -222 76z m135 -35
c45 -24 73 -72 73 -126 0 -135 -184 -186 -253 -72 -12 19 -20 50 -20 77 0 108
106 172 200 121z"/>
<path d="M10972 704 c-56 -29 -86 -77 -90 -148 -3 -51 0 -66 20 -96 38 -56 82
-80 148 -80 100 0 170 68 170 167 0 65 -18 103 -66 139 -46 35 -132 44 -182
18z m146 -34 c123 -75 75 -260 -68 -260 -79 0 -140 62 -140 142 0 69 70 138
140 138 19 0 50 -9 68 -20z"/>
<path d="M14715 706 c-82 -35 -123 -136 -91 -220 29 -75 78 -106 167 -106 80
0 159 44 131 72 -9 9 -18 6 -37 -12 -33 -31 -118 -39 -164 -16 -43 23 -71 71
-71 124 0 55 23 94 70 121 59 33 102 28 177 -19 30 -19 41 -5 17 21 -41 46
-135 63 -199 35z"/>
<path d="M4031 643 c10 -38 31 -110 45 -160 15 -51 29 -93 33 -93 3 0 26 52
51 115 25 63 48 115 51 115 3 0 26 -52 50 -115 24 -63 46 -115 50 -115 3 0 18
42 33 93 14 50 35 122 45 160 18 62 18 67 3 67 -13 0 -24 -25 -46 -102 -16
-57 -32 -108 -35 -115 -4 -7 -26 39 -51 102 -25 63 -47 115 -50 115 -3 0 -25
-52 -50 -115 -25 -63 -47 -109 -51 -102 -3 7 -19 58 -34 115 -22 80 -32 102
-46 102 -17 0 -17 -4 2 -67z"/>
<path d="M4620 545 l0 -165 90 0 c83 0 90 1 90 20 0 18 -7 20 -75 20 l-75 0 0
65 0 65 75 0 c60 0 75 3 75 15 0 12 -15 15 -75 15 l-75 0 0 50 0 49 77 3 c50
2 78 7 81 16 3 9 -20 12 -92 12 l-96 0 0 -165z"/>
<path d="M5250 695 c0 -10 11 -15 35 -15 l35 0 0 -151 c0 -138 1 -150 18 -147
15 3 17 20 20 151 l3 147 34 0 c24 0 35 5 35 15 0 12 -17 15 -90 15 -73 0 -90
-3 -90 -15z"/>
<path d="M5675 556 c-41 -87 -75 -162 -75 -167 0 -5 7 -9 15 -9 9 0 26 23 40
55 l24 55 73 0 74 0 27 -55 c15 -30 34 -55 42 -55 8 0 15 2 15 4 0 8 -143 312
-151 320 -5 6 -40 -57 -84 -148z m84 -34 c-28 -2 -53 -1 -55 1 -2 2 8 30 23
63 l27 59 28 -60 28 -60 -51 -3z"/>
<path d="M6110 545 c0 -140 2 -165 15 -165 12 0 15 15 15 77 l0 78 78 -78
c114 -114 136 -101 28 17 l-86 94 78 71 c64 59 73 70 54 71 -16 0 -46 -21 -88
-62 l-64 -61 0 61 c0 48 -3 62 -15 62 -13 0 -15 -25 -15 -165z"/>
<path d="M6530 545 l0 -165 90 0 c83 0 90 1 90 20 0 18 -7 20 -75 20 l-75 0 0
65 0 65 75 0 c60 0 75 3 75 15 0 12 -15 15 -75 15 l-75 0 0 50 0 49 77 3 c50
2 78 7 81 16 3 9 -20 12 -92 12 l-96 0 0 -165z"/>
<path d="M7763 555 c-40 -85 -73 -159 -73 -165 0 -28 29 -4 53 45 l27 55 74 0
73 0 17 -44 c18 -46 38 -70 55 -64 10 3 -137 328 -148 328 -3 0 -39 -70 -78
-155z m127 -26 c0 -5 -22 -9 -50 -9 -28 0 -50 5 -50 10 0 6 12 34 26 62 l26
50 24 -52 c13 -28 24 -56 24 -61z"/>
<path d="M8200 545 c0 -140 2 -165 15 -165 12 0 15 16 15 80 0 44 4 80 9 80 5
0 36 -36 70 -80 34 -44 69 -80 77 -80 23 0 17 12 -36 81 -27 35 -50 67 -50 72
0 4 11 7 24 7 13 0 35 9 50 21 21 16 26 29 26 64 0 65 -30 85 -126 85 l-74 0
0 -165z m152 118 c22 -20 23 -51 1 -75 -12 -13 -30 -18 -70 -18 l-53 0 0 55 0
55 52 0 c34 0 58 -6 70 -17z"/>
<path d="M8620 545 l0 -165 95 0 c88 0 95 1 95 20 0 18 -7 20 -80 20 l-81 0 3
63 3 62 78 3 c59 2 77 6 77 17 0 12 -17 15 -80 15 l-80 0 0 50 0 50 80 0 c64
0 80 3 80 15 0 12 -17 15 -95 15 l-95 0 0 -165z"/>
<path d="M9830 545 c0 -138 2 -165 15 -165 11 0 15 18 17 83 l3 82 68 3 c51 2
67 6 67 17 0 12 -15 15 -70 15 l-70 0 0 50 0 50 70 0 c56 0 70 3 70 15 0 12
-16 15 -85 15 l-85 0 0 -165z"/>
<path d="M10456 698 c4 -7 27 -43 50 -80 41 -63 43 -72 46 -150 2 -66 6 -83
18 -83 12 0 16 17 18 83 3 81 5 86 52 163 43 67 47 79 31 79 -13 0 -33 -22
-61 -66 l-42 -66 -39 66 c-28 46 -46 66 -60 66 -14 0 -18 -4 -13 -12z"/>
<path d="M11440 574 l0 -136 29 -29 c25 -24 38 -29 78 -29 88 0 112 49 113
228 0 95 -1 102 -20 102 -19 0 -20 -7 -20 -130 0 -117 -2 -132 -20 -150 -28
-28 -81 -26 -108 3 -20 21 -22 34 -22 150 0 106 -2 127 -15 127 -13 0 -15 -22
-15 -136z"/>
<path d="M11882 548 c3 -146 5 -163 21 -166 15 -3 17 6 17 78 0 45 4 80 9 78
5 -1 36 -38 70 -80 34 -43 68 -78 76 -78 8 0 15 3 15 6 0 3 -25 38 -56 77
l-55 72 37 6 c72 12 100 94 49 144 -22 22 -32 25 -105 25 l-80 0 2 -162z m162
110 c21 -30 20 -44 -4 -68 -15 -15 -33 -20 -70 -20 l-50 0 0 55 0 55 54 0 c45
0 58 -4 70 -22z"/>
<path d="M12580 545 c0 -138 2 -165 15 -165 11 0 15 18 17 78 l3 77 62 5 c77
6 107 31 107 86 0 28 -7 42 -28 60 -23 21 -38 24 -102 24 l-74 0 0 -165z m154
119 c9 -8 16 -26 16 -39 0 -39 -25 -55 -86 -55 l-54 0 0 55 0 55 54 0 c36 0
60 -5 70 -16z"/>
<path d="M13000 545 c0 -140 2 -165 15 -165 12 0 15 15 15 74 0 41 4 77 9 81
6 3 38 -31 72 -75 40 -52 69 -80 82 -80 14 0 17 4 10 13 -5 6 -31 39 -56 73
-26 33 -47 63 -47 67 0 4 11 7 24 7 41 0 80 41 80 85 0 29 -7 43 -28 61 -23
21 -38 24 -102 24 l-74 0 0 -165z m154 119 c9 -8 16 -26 16 -39 0 -39 -25 -55
-86 -55 l-54 0 0 55 0 55 54 0 c36 0 60 -5 70 -16z"/>
<path d="M13420 545 c0 -140 2 -165 15 -165 13 0 15 25 15 165 0 140 -2 165
-15 165 -13 0 -15 -25 -15 -165z"/>
<path d="M13663 678 c71 -169 121 -284 126 -290 4 -4 39 67 78 157 60 138 68
165 54 165 -14 0 -32 -32 -73 -126 l-55 -126 -54 126 c-40 94 -58 126 -71 126
-17 0 -17 -3 -5 -32z"/>
<path d="M14193 554 c-40 -85 -73 -159 -73 -164 0 -6 6 -10 13 -10 7 0 25 25
40 55 l27 55 74 0 74 0 17 -45 c18 -47 37 -69 55 -63 10 3 -137 328 -149 328
-3 0 -39 -70 -78 -156z m127 -25 c0 -5 -23 -9 -51 -9 -48 0 -50 1 -43 23 3 12
16 40 27 62 l20 40 23 -54 c13 -29 24 -57 24 -62z"/>
<path d="M15133 698 c3 -7 25 -47 51 -88 44 -71 46 -77 46 -152 0 -63 3 -78
15 -78 12 0 15 16 15 83 1 81 1 83 50 162 40 66 46 81 32 84 -9 2 -20 -3 -25
-10 -5 -8 -23 -38 -41 -67 l-33 -54 -42 66 c-23 36 -48 66 -57 66 -9 0 -14 -6
-11 -12z"/>
</g>
</svg>
